<svg width="48px" height="48px" viewBox="0 0 48 48" version="1.1" xmlns="http://www.w3.org/2000/svg" xmlns:xlink="http://www.w3.org/1999/xlink">
  <g id="appletv" fill="#434E5A">
    <g id="apple_tv" transform="translate(4.000000, 4.000000)">
      <path d="M39.2125,5.325 C38.825,4.3375 37.925,2.95 36.65,1.9625 C35.9125,1.4 35.0375,0.85 33.8375,0.5 C32.55,0.125 30.9625,0 29,0 L11,0 C9.0375,0 7.45,0.125 6.1625,0.5125 C4.9625,0.875 4.075,1.4125 3.35,1.975 C2.075,2.95 1.175,4.35 0.7875,5.3375 C0.0125,7.325 0,9.575 0,11 L0,29 C0,30.425 0.0125,32.675 0.7875,34.675 C1.175,35.6625 2.075,37.05 3.35,38.0375 C4.0875,38.6 4.9625,39.15 6.1625,39.5 C7.45,39.875 9.0375,40 11,40 L29,40 C30.9625,40 32.55,39.875 33.8375,39.4875 C35.0375,39.125 35.925,38.5875 36.65,38.025 C37.925,37.05 38.825,35.65 39.2125,34.6625 C40,32.675 40,30.4125 40,28.9875 L40,11 C40,9.575 39.9875,7.325 39.2125,5.325 Z M12.675,14.975 C13.1,14.4625 13.8375,14.075 14.475,14.05 L14.5625,14.05 L14.575,14.1375 C14.6375,14.7875 14.4125,15.5 13.95,16.0875 L13.95,16.0875 C13.5875,16.5125 12.9625,16.95 12.275,16.95 C12.225,16.95 12.175,16.95 12.1375,16.9375 L12.0625,16.9375 L12.05,16.8625 C11.9375,16.125 12.325,15.3875 12.675,14.975 Z M17,22.7875 C16.9125,23.05 16.675,23.75 16.1875,24.45 C15.725,25.1375 15.1875,25.9125 14.3125,25.925 C13.9125,25.925 13.6375,25.8125 13.375,25.7 C13.1,25.5875 12.825,25.4625 12.3875,25.4625 C11.925,25.4625 11.625,25.5875 11.3375,25.7125 C11.0875,25.825 10.825,25.925 10.4625,25.9375 C10.45,25.9375 10.4375,25.9375 10.4125,25.9375 C9.625,25.9375 9.05,25.1875 8.525,24.4125 C7.4125,22.8125 6.775,20.1625 7.7875,18.425 C8.3,17.5125 9.2625,16.925 10.2875,16.9125 C10.7375,16.9 11.1625,17.075 11.5375,17.2125 C11.8125,17.325 12.0375,17.4125 12.225,17.4125 C12.3875,17.4125 12.625,17.325 12.8875,17.2125 C13.325,17.0375 13.875,16.825 14.475,16.8625 L14.475,16.8625 C15.7,16.9625 16.35,17.575 16.6875,18.0625 L16.7375,18.1375 L16.675,18.1875 C16.675,18.1875 16.6625,18.2 16.65,18.2125 C16.2875,18.45 15.4375,19.1375 15.45,20.3625 C15.4625,21.85 16.6,22.4875 16.95,22.65 C16.975,22.6625 16.9875,22.6625 17,22.675 L17.0375,22.7125 L17,22.7875 Z M23.7125,18.45 L22.0375,18.45 L22.0375,23.325 C22.0375,24.05 22.3375,24.3625 23.025,24.3625 C23.2,24.3625 23.5,24.3375 23.6,24.325 L23.7,24.3125 L23.7,25.825 L23.6375,25.8375 C23.425,25.9 22.975,25.9125 22.65,25.9125 C20.9125,25.9125 20.2,25.2125 20.2,23.475 L20.2,18.45 L18.9125,18.45 L18.9125,16.9375 L20.2,16.9375 L20.2,14.85 L22.0375,14.85 L22.0375,16.9375 L23.7125,16.9375 L23.7125,18.45 L23.7125,18.45 Z M29.475,25.875 L27.6,25.875 L24.35,16.95 L26.3,16.95 L28.5375,23.875 L30.775,16.95 L32.7,16.95 L29.475,25.875 Z" id="_xF8FF_tv_icon_-_on_dark" />
    </g>
  </g>
</svg>
