<svg width="300px" height="300px" viewBox="4 -4 300 300" version="1.1" xmlns="http://www.w3.org/2000/svg" xmlns:xlink="http://www.w3.org/1999/xlink">
  <g transform="translate(39.000000, 38.000000)">
    <path fill="#FDD760" d="M163.903002,59.0656248 C104.03482,-0.8562496 71.1143451,116.415625 11.2461634,56.4937504 C11.2461634,56.4937504 -13.2818384,75.9625 11.2461634,120.053125 C39.7050149,122.875 68.0171229,113.403125 89.0638725,94.0218752 C75.4417145,116.915625 55.8592772,135.678125 32.4115561,148.3 C38.0002942,155.009375 46.0930362,169.05625 53.5800709,176.55 C131.191714,254.23125 166.472572,211.859375 166.472572,211.859375 C106.604391,151.9375 223.771184,118.984375 163.903002,59.0656248 L163.903002,59.0656248 Z" />
    <path fill="#85622E" d="M218.781908,4.1343752 C213.271225,-1.3781248 204.338612,-1.3781248 198.827929,4.1343752 L153.065846,49.9031248 C160.787046,55.4218752 167.540364,62.1812496 173.05417,69.9125 L218.781908,24.1437504 C221.4389,21.4906248 222.931311,17.8937504 222.931311,14.1375 C222.931311,10.3843752 221.4389,6.7843752 218.781908,4.1343752 L218.781908,4.1343752 Z" />
    <path fill="#E5A03E" d="M64.1643287,185.978125 C61.0546177,185.978125 58.3133259,183.946875 57.4078883,180.96875 C56.50245,177.99375 57.6514195,174.775 60.2334789,173.046875 C76.5063844,160.471875 89.0295281,143.68125 96.4509969,124.49375 C97.8965756,120.871875 102.002269,119.10625 105.62402,120.553125 C109.242649,122 111.006692,126.109375 109.561114,129.734375 C101.171763,151.63125 86.794033,170.71875 68.0733229,184.81875 C66.9118646,185.58125 65.5505854,185.984375 64.1643287,185.978125 L64.1643287,185.978125 Z" />
  </g>
</svg>
