<svg width="18px" height="18px" viewBox="0 0 18 18" version="1.1" xmlns="http://www.w3.org/2000/svg" xmlns:xlink="http://www.w3.org/1999/xlink">
  <defs>
    <linearGradient x1="50%" y1="100%" x2="50%" y2="0%" id="linearGradient-1">
      <stop stop-color="#EFADF7" offset="0%" />
      <stop stop-color="#8676FA" offset="100%" />
    </linearGradient>
  </defs>
  <g>
    <g id="cloud" fill-rule="nonzero" fill="url(#linearGradient-1)">
      <g transform="translate(1.000000, 3.000000)">
        <path d="M14.2413176,4.952381 C14.1783029,4.952381 13.8002148,4.5714286 13.8002148,4.3809524 L13.8002148,4.3174603 L13.8002148,4.2539683 C13.8002148,4.1269841 13.8002148,3.9365079 13.8002148,3.8095238 C13.8002148,1.7142857 12.0988185,0 10.0823487,0 C8.7590405,0 7.6247762,0.6349206 6.9946294,1.6507937 C6.8686001,1.7777778 6.6165414,1.968254 6.490512,1.968254 C6.3644826,1.968254 6.2384533,1.9047619 6.1124239,1.8412698 C5.6713212,1.5873016 5.1672037,1.3968254 4.6630863,1.3968254 C3.2137487,1.3968254 2.0164697,2.6031746 2.0164697,4.0634921 C2.0164697,4.1269841 2.0164697,4.2539683 2.0164697,4.3174603 L2.0164697,4.3809524 C2.0164697,4.5714286 1.8904404,4.7619048 1.764411,4.8888889 L1.7013963,4.952381 C0.6301468,5.5238095 0,6.5396825 0,7.7460317 C0,9.5238095 1.2602936,11.4285714 2.9616899,11.4285714 L5.8603652,11.4285714 L6.7425707,11.4285714 L7.0576441,11.4285714 L8.8220551,11.4285714 L9.1371285,11.4285714 L10.0823487,11.4285714 L12.6029359,11.4285714 C14.3043323,11.4285714 15.8796992,9.5238095 15.8796992,7.7460317 C15.8796992,6.5396825 15.1865378,5.4603175 14.2413176,4.952381 Z" />
      </g>
    </g>
  </g>
</svg>
