<svg width="512" height="512" viewBox="14 12 460 460" xmlns="http://www.w3.org/2000/svg">
  <path d="m109.78125 298.976562h21.132812v84.523438h-21.132812zm0 0" fill="#6c533a" />
  <path d="m364.757812 298.976562h21.128907v84.523438h-21.128907zm0 0" fill="#593927" />
  <path d="m247.835938 320.109375h159.183593v-21.132813l-201.445312-21.128906zm0 0" fill="#480306" />
  <path d="m88.652344 298.976562v21.132813h159.183594v-42.261719zm0 0" fill="#593927" />
  <path d="m364.757812 225.023438v42.257812h-138.054687l21.132813-73.957031h85.226562c17.503906 0 31.695312 14.195312 31.695312 31.699219zm0 0" fill="#f9963b" />
  <path d="m247.835938 193.324219v73.957031h-116.921876c0-3.484375 0-38.714844 0-42.257812 0-17.503907 14.191407-31.699219 31.695313-31.699219zm0 0" fill="#fcba66" />
  <path d="m247.835938 246.152344-21.132813 26.878906 21.132813 25.945312h116.921874l21.128907-52.824218zm0 0" fill="#d95d27" />
  <path d="m109.78125 246.152344 21.132812 52.824218h116.921876v-52.824218zm0 0" fill="#eb7330" />
  <path d="m99.21875 140.5c-17.503906 0-31.695312 14.191406-31.695312 31.695312 0 13.796876 8.816406 22.25 21.128906 25.214844v101.570313h42.261718s0-24.902344 0-52.828125v-73.957032c0-17.503906-14.191406-31.695312-31.695312-31.695312zm0 0" fill="#f9963b" />
  <path d="m396.453125 140.5c-17.503906 0-31.695313 14.191406-31.695313 31.695312v73.957032 52.828125h42.261719v-101.570313c12.308594-2.964844 21.128907-11.417968 21.128907-25.214844 0-17.503906-14.191407-31.695312-31.695313-31.695312zm0 0" fill="#eb7330" />
</svg>
