<svg width="34px" height="34px" viewBox="0 0 34 34" version="1.1" xmlns="http://www.w3.org/2000/svg" xmlns:xlink="http://www.w3.org/1999/xlink">
  <defs>
    <linearGradient x1="50%" y1="-57.537865%" x2="50%" y2="96.7665752%" id="linearGradient-1">
      <stop stop-color="#3064B6" offset="0%" />
      <stop stop-color="#56C5EF" offset="100%" />
    </linearGradient>
  </defs>
  <g stroke="none" stroke-width="1" fill="none" fill-rule="evenodd">
    <g id="earth" fill-rule="nonzero" fill="url(#linearGradient-1)">
      <g transform="translate(4.000000, 4.000000)">
        <path d="M13,26 C5.83555556,26 0,20.1644444 0,13 C0,5.83555556 5.83555556,0 13,0 C20.1644444,0 26,5.83555556 26,13 C26,20.1644444 20.1644444,26 13,26 Z M13,0.962962963 C6.36382922,0.962962963 0.962962963,6.36382922 0.962962963,13 C0.962962963,19.6361708 6.36382922,25.037037 13,25.037037 C19.6361708,25.037037 25.037037,19.6361708 25.037037,13 C25.037037,6.36382922 19.6361708,0.962962963 13,0.962962963 Z M25.0300399,13.4131847 C24.8114262,19.8589003 19.4978936,25.037037 13,25.037037 C6.36382922,25.037037 0.962962963,19.6361708 0.962962963,13 C0.962962963,10.8779254 1.5152306,8.88216742 2.4835578,7.148934 C2.56820056,7.77636628 2.71410028,8.3536676 2.86,8.84 C3.09111111,9.59111111 3.35111111,10.5444444 4.47777778,10.8333333 C4.56444444,10.8622222 4.65111111,10.8622222 4.73777778,10.8911111 C5.11333333,10.9777778 5.31555556,11.0355556 5.63333333,11.2666667 C5.83555556,11.3822222 6.00888889,11.5555556 6.18222222,11.7 C6.44222222,11.9311111 6.73111111,12.1622222 7.04888889,12.3644444 C7.30888889,12.5088889 7.54,12.6244444 7.74222222,12.7111111 C8.20444444,12.9133333 8.43555556,13.0288889 8.55111111,13.52 C8.63777778,13.8088889 8.63777778,14.1266667 8.63777778,14.4733333 C8.63777778,15.0511111 8.66666667,15.6288889 8.92666667,16.1777778 C9.12888889,16.64 9.47555556,16.9577778 9.79333333,17.2466667 C10.1111111,17.5355556 10.4,17.7955556 10.5444444,18.2288889 C10.6888889,18.72 10.66,19.3844444 10.6311111,20.0777778 C10.5733333,21.58 10.4866667,23.4 12.4222222,23.92 C12.4511111,23.9488889 12.5088889,23.9488889 12.5377778,23.9488889 C12.6244444,23.9488889 12.74,23.8911111 12.6533333,23.92 C12.7688889,23.8333333 12.8266667,23.6888889 12.7977778,23.5444444 C12.7688889,23.4 12.74,23.2266667 12.7111111,23.0533333 C12.6533333,22.6488889 12.5088889,21.9555556 12.6822222,21.7533333 C12.8555556,21.5511111 13.2311111,21.3777778 13.5777778,21.2333333 C13.8955556,21.0888889 14.2422222,20.9444444 14.5022222,20.7422222 C15.2244444,20.1933333 15.3688889,19.6444444 15.5133333,18.9511111 L15.5422222,18.8644444 C15.6,18.6622222 15.7733333,18.5466667 16.0622222,18.3733333 C16.2066667,18.2577778 16.4088889,18.1422222 16.5822222,17.9977778 C17.16,17.5066667 18.0844444,16.2933333 18.1133333,15.1955556 C18.1133333,14.7044444 17.94,14.3 17.6222222,13.9822222 C17.3044444,13.6644444 16.9,13.4911111 16.4955556,13.3177778 L15.9755556,13.0577778 C15.7155556,12.9133333 15.5422222,12.6822222 15.34,12.4511111 C15.1955556,12.2488889 14.9933333,12.0466667 14.7622222,11.8444444 C14.3,11.4688889 13.7511111,11.4111111 13.26,11.3533333 C13.0577778,11.3244444 12.8844444,11.2955556 12.7111111,11.2666667 C12.3933333,11.2088889 12.0755556,11.0644444 11.7577778,10.9488889 C11.44,10.8044444 11.1222222,10.6888889 10.7755556,10.6022222 C9.93777778,10.3711111 9.21555556,10.5444444 8.46444444,10.6888889 C8.29111111,10.7177778 8.03111111,10.7755556 7.94444444,10.7755556 C7.91555556,10.7466667 7.88666667,10.66 7.82888889,10.4288889 C7.62666667,9.70666667 6.99111111,9.53333333 6.52888889,9.38888889 C5.95111111,9.24444444 5.86444444,9.21555556 5.98,8.69555556 C6.09555556,8.26222222 6.41333333,7.94444444 6.87555556,7.8 C7.36666667,7.65555556 7.88666667,7.77111111 8.23333333,8.08888889 C8.34888889,8.20444444 8.55111111,8.23333333 8.69555556,8.17555556 C8.86888889,8.11777778 8.98444444,7.97333333 8.98444444,7.8 C9.04222222,6.90444444 9.64888889,6.06666667 10.1977778,5.37333333 C10.8333333,4.59333333 11.18,4.53555556 12.2488889,4.56444444 L12.3066667,4.56444444 C12.6244444,4.59333333 13.0866667,4.59333333 13.3466667,4.24666667 C13.4333333,4.13111111 13.5488889,3.9 13.4333333,3.55333333 C13.3466667,3.23555556 13.0288889,3.00444444 12.7688889,2.83111111 C12.6533333,2.74444444 12.5088889,2.62888889 12.4511111,2.57111111 C12.3355556,2.39777778 12.22,2.13777778 12.1044444,1.87777778 C11.995874,1.61238347 11.8570792,1.30944624 11.6691283,1.03608004 C12.1062145,0.98776749 12.5502706,0.962962963 13,0.962962963 C14.1697755,0.962962963 15.3011676,1.13077896 16.3713607,1.44359553 C16.3350284,2.96217844 17.3054923,3.24754044 18.1061378,3.4762963 C18.3950267,3.56296296 18.6839155,3.64962963 18.9439155,3.79407407 C18.7128044,3.96740741 18.5105822,4.16962963 18.4816933,4.42962963 C18.4239155,4.89185185 18.7994711,5.20962963 19.1461378,5.49851852 C19.34836,5.70074074 19.5794711,5.87407407 19.6950267,6.0762963 C20.2439155,6.94296296 20.1861378,8.09851852 20.1572489,9.22518519 C20.12836,9.88962963 20.0994711,10.5540741 20.1861378,11.1607407 C20.2439155,11.4785185 20.5328044,13.1540741 21.5728044,13.8762963 C21.8616933,14.0785185 22.20836,14.1940741 22.5550267,14.1940741 C22.6994711,14.1940741 22.8439155,14.1651852 22.9305822,14.1074074 C23.4505822,13.9918519 23.76836,13.5874074 24.02836,13.2696296 C24.1150267,13.1540741 24.2305822,13.0096296 24.3172489,12.9518519 C24.3750267,12.9807407 24.4616933,13.0674074 24.6350267,13.2985185 C24.6834237,13.3662744 24.838113,13.4015987 25.0300399,13.4131847 Z" />
      </g>
    </g>
  </g>
</svg>
