<svg width="88px" height="88px" viewBox="3 3 82 82" version="1.1" xmlns="http://www.w3.org/2000/svg" xmlns:xlink="http://www.w3.org/1999/xlink">
  <g id="rocket" fill-rule="nonzero">
    <g transform="translate(44.000000, 44.000000) rotate(-45.000000) translate(-44.000000, -44.000000) translate(4.000000, 21.000000)">
      <polygon id="Shape" fill="#68D4F8" points="12.6315789 0 36.4912281 0 49.122807 12.5454545 25.2631579 12.5454545"></polygon>
      <polygon id="Shape" fill="#68D4F8" points="25.2631579 33.4545455 49.122807 33.4545455 36.4912281 46 12.6315789 46"></polygon>
      <path d="M30.7929825,37.2181818 C25.4736842,35.9218182 20.9964912,33.9424242 17.8105263,31.5448485 C20.2831929,26.1129594 20.2831929,19.8870406 17.8105263,14.4551515 C20.9964912,12.0575758 25.4736842,10.0781818 30.7929825,8.76787879 C34.4707527,12.6036407 36.5125591,17.703322 36.4912281,23 C36.4912281,28.5478788 34.3157895,33.58 30.7929825,37.2181818 Z" id="Shape" fill="#68D4F8"></path>
      <path d="M30.7929825,8.78181818 C25.4736842,10.0781818 20.9964912,12.0575758 17.8105263,14.4551515 C18.9894737,17.0478788 19.6491228,19.9472727 19.6491228,23 L36.4912281,23 C36.4912281,17.4521212 34.3157895,12.42 30.7929825,8.78181818 Z" id="Shape" fill="#8DDEF9"></path>
      <path d="M67.4526316,12.7266667 C75.0877193,16.8666667 80,21.9266667 80,23 C80,24.0733333 75.1017544,29.1333333 67.4526316,33.2733333 C69.2458063,30.1429281 70.1844013,26.6015463 70.1754386,23 C70.1754386,19.2363636 69.1929825,15.7375758 67.4526316,12.7266667 Z" id="Shape" fill="#68D4F8"></path>
      <path d="M67.4526316,12.7266667 C75.0877193,16.8666667 80,21.9266667 80,23 L70.1754386,23 C70.1754386,19.2363636 69.1929825,15.7375758 67.4526316,12.7266667 Z" id="Shape" fill="#8DDEF9"></path>
      <path d="M67.4526316,33.2733333 C61.6701754,36.409697 54.3157895,39.030303 46.3157895,39.030303 C40.7157895,39.030303 35.4385965,38.3751515 30.7929825,37.2181818 C34.4673868,33.3859027 36.5089338,28.2918637 36.4912281,23 C36.4912281,17.4521212 34.3157895,12.42 30.7929825,8.78181818 C35.4385965,7.61090909 40.7157895,6.96969697 46.3157895,6.96969697 C54.3157895,6.96969697 61.6701754,9.59030303 67.4526316,12.7266667 C69.2458063,15.8570719 70.1844013,19.3984537 70.1754386,23 C70.1754386,26.7636364 69.1929825,30.2624242 67.4526316,33.2733333 Z" id="Shape" fill="#ECFAFF"></path>
      <path d="M67.4526316,12.7266667 C61.6701754,9.59030303 54.3157895,6.96969697 46.3157895,6.96969697 C40.7157895,6.96969697 35.4385965,7.62484848 30.7929825,8.78181818 C34.4673868,12.6140973 36.5089338,17.7081363 36.4912281,23 L70.1754386,23 C70.1754386,19.2363636 69.1929825,15.7375758 67.4526316,12.7266667 Z" id="Shape" fill="#FCFEFF"></path>
      <ellipse id="Oval" fill="#68D4F8" cx="56.8421053" cy="23" rx="4.9122807" ry="4.87878788"></ellipse>
      <path d="M51.9298246,23 L61.754386,23 C61.754386,20.3055199 59.555083,18.1212121 56.8421053,18.1212121 C54.1291275,18.1212121 51.9298246,20.3055199 51.9298246,23 Z" id="Shape" fill="#8DDEF9"></path>
      <path d="M16.8421053,23 C16.8421053,9.00484848 1.40350877,23 0,23 C1.40350877,23 16.8421053,36.9951515 16.8421053,23 Z" id="Shape" fill="#68D4F8"></path>
    </g>
  </g>
</svg>
