<svg width="64px" height="64px" viewBox="0 0 64 64" version="1.1" xmlns="http://www.w3.org/2000/svg" xmlns:xlink="http://www.w3.org/1999/xlink">
  <g fill="#434E5A">
    <g id="slack" transform="translate(11.000000, 11.000000)">
      <path d="M26.88,40.058 C12.77,44.291 6.656,40.998 2.422,26.888 C-1.811,12.778 1.482,6.662 15.592,2.428 C29.702,-1.805 35.818,1.488 40.052,15.598 C44.285,29.71 40.992,35.824 26.882,40.058 L26.88,40.058 Z M29.102,31.208 C29.7963796,31.2256137 30.4557309,30.9035425 30.8686918,30.3450297 C31.2816528,29.786517 31.396344,29.0617274 31.176,28.403 L30.253,25.65 L32.913,24.757 C33.9829059,24.3520635 34.5418828,23.1743074 34.1790791,22.0893901 C33.8162754,21.0044727 32.6612703,20.3998838 31.563,20.72 L28.901,21.612 L27.134,16.332 L29.794,15.44 C30.8639059,15.0350635 31.4228828,13.8573074 31.0600791,12.7723901 C30.6972754,11.6874727 29.5422703,11.0828838 28.444,11.403 L25.782,12.293 L24.862,9.541 C24.632727,8.80363787 24.0223383,8.24810884 23.2667057,8.08908551 C22.5110731,7.93006217 21.7285527,8.19245263 21.2215331,8.77486155 C20.7145135,9.35727047 20.5624101,10.1684742 20.824,10.895 L21.747,13.648 L16.261,15.485 L15.337,12.732 C15.1179243,11.9825283 14.5063232,11.4130044 13.7431621,11.2478158 C12.9800011,11.0826272 12.1876284,11.3482566 11.6782321,11.9400483 C11.1688357,12.5318399 11.024081,13.3549193 11.301,14.085 L12.223,16.838 L9.563,17.728 C8.84168077,17.9691543 8.3038086,18.5768092 8.15199471,19.3220671 C8.00018082,20.0673251 8.25748937,20.8369635 8.82699471,21.3410671 C9.39650005,21.8451708 10.1916808,22.0071543 10.913,21.766 L13.575,20.876 L15.345,26.156 L12.683,27.048 C11.6085482,27.4502749 11.0457606,28.6312898 11.4101009,29.7191905 C11.7744412,30.8070912 12.9349892,31.4109573 14.035,31.085 L16.695,30.195 L17.618,32.947 C17.9913445,34.0617868 19.1977132,34.6628445 20.3125,34.2895 C21.4272868,33.9161555 22.0283445,32.7097868 21.655,31.595 L20.733,28.842 L26.217,27 L27.139,29.754 C27.4227457,30.6016073 28.2055128,31.1818933 29.099,31.207 L29.102,31.208 Z M17.61,19.52 L23.096,17.683 L24.864,22.963 L19.378,24.803 L17.608,19.52 L17.61,19.52 Z" />
    </g>
  </g>
</svg>
