<svg width="524px" height="524px" viewBox="0 0 524 524" version="1.1" xmlns="http://www.w3.org/2000/svg" xmlns:xlink="http://www.w3.org/1999/xlink">
  <g id="washing_machine" fill-rule="nonzero">
    <g transform="translate(6.000000, 6.000000)">
      <circle id="Oval" fill="#D5DCED" cx="256" cy="256" r="256" />
      <circle id="Oval" fill="#C7CFE2" cx="256" cy="256" r="214.71" />
      <circle id="Oval" fill="#959CB5" cx="256" cy="256" r="198.19" />
      <circle id="Oval" fill="#464655" cx="256" cy="256" r="173.42" />
      <circle id="Oval" fill="#5B5D6E" cx="256" cy="256" r="148.65" />
      <circle id="Oval" fill="#7F8499" cx="313.81" cy="222.97" r="57.806" />
      <g id="Group" transform="translate(206.000000, 136.000000)" fill="#68D4F8">
        <circle id="Oval" cx="16.97" cy="62.19" r="16.516" />
        <circle id="Oval" cx="74.77" cy="12.65" r="12.387" />
      </g>
      <circle id="Oval" fill="#8DDEF9" cx="317.94" cy="194.06" r="8.258" />
      <path d="M82.581,256 C82.581,351.777 160.224,429.419 256,429.419 C351.776,429.419 429.419,351.777 429.419,256 C429.419,253.217 429.132,250.508 429.003,247.757 C400.527,247.923 400.355,264.258 371.586,264.258 C342.67,264.258 342.67,247.742 313.753,247.742 C284.856,247.742 284.856,264.258 255.96,264.258 C227.054,264.258 227.054,247.742 198.149,247.742 C169.253,247.742 169.253,264.258 140.358,264.258 C111.617,264.258 111.446,247.924 82.998,247.757 C82.867,250.508 82.581,253.217 82.581,256 Z" id="Shape" fill="#00AAF0" />
      <path d="M404.533,253.783 C395.694,258.499 388.681,264.258 371.586,264.258 C342.67,264.258 342.67,247.742 313.753,247.742 C284.856,247.742 284.856,264.258 255.96,264.258 C227.054,264.258 227.054,247.742 198.149,247.742 C169.253,247.742 169.253,264.258 140.358,264.258 C123.294,264.258 116.286,258.509 107.467,253.796 C107.456,254.537 107.356,255.256 107.356,256 C107.356,338.094 173.907,404.645 256.001,404.645 C338.095,404.645 404.645,338.094 404.645,256 C404.645,255.252 404.544,254.529 404.533,253.783 Z" id="Shape" fill="#68D4F8" />
      <path d="M396.387,216.433 L396.387,295.567 C396.387,311.049 407.14,324.454 422.254,327.813 L455.557,335.214 C465.298,310.696 470.71,283.988 470.71,256.001 C470.71,228.013 465.298,201.305 455.557,176.788 L422.254,184.189 C407.14,187.546 396.387,200.951 396.387,216.433 Z" id="Shape" fill="#C7CFE2" />
      <path d="M313.754,247.742 C291.223,247.742 286.212,257.756 271.42,262.18 C281.979,273.589 297.035,280.774 313.807,280.774 C330.569,280.774 345.619,273.596 356.177,262.198 C341.328,257.784 336.331,247.742 313.754,247.742 Z" id="Shape" fill="#8DDEF9" />
    </g>
  </g>
</svg>
